<svg xmlns="http://www.w3.org/2000/svg" version="1.1" xmlns:xlink="http://www.w3.org/1999/xlink"
    xmlns:svgjs="http://svgjs.dev/svgjs" viewBox="0 0 800 800" height="32" width="32">
    <defs>
        <linearGradient x1="50%" y1="0%" x2="50%" y2="100%" id="nnneon-grad">
            <stop stop-color="hsl(55, 94%, 54%)" stop-opacity="1" offset="0%"></stop>
            <stop stop-color="hsl(212, 96%, 51%)" stop-opacity="1" offset="100%"></stop>
        </linearGradient>
        <filter id="nnneon-filter" x="-100%" y="-100%" width="400%" height="400%" filterUnits="objectBoundingBox"
            primitiveUnits="userSpaceOnUse" color-interpolation-filters="sRGB">
            <feGaussianBlur stdDeviation="17 8" x="0%" y="0%" width="100%" height="100%" in="SourceGraphic"
                edgeMode="none" result="blur"></feGaussianBlur>
        </filter>
        <filter id="nnneon-filter2" x="-100%" y="-100%" width="400%" height="400%" filterUnits="objectBoundingBox"
            primitiveUnits="userSpaceOnUse" color-interpolation-filters="sRGB">
            <feGaussianBlur stdDeviation="10 35" x="0%" y="0%" width="100%" height="100%" in="SourceGraphic"
                edgeMode="none" result="blur"></feGaussianBlur>
        </filter>
    </defs>
    <g stroke-width="16" stroke="url(#nnneon-grad)" fill="none">
        <path
            d="M400.0000305175781 12.02117919921875L736.0000519877614 206.01059915752444V593.9894390741357L400.0000305175781 787.9788590324415L64.00000904739494 593.9894390741357V206.01059915752444L400.0000305175781 12.02117919921875Z "
            filter="url(#nnneon-filter)"></path>
        <path
            d="M412.0000305175781 12.02117919921875L748.0000519877614 206.01059915752444V593.9894390741357L412.0000305175781 787.9788590324415L76.00000904739494 593.9894390741357V206.01059915752444L412.0000305175781 12.02117919921875Z "
            filter="url(#nnneon-filter2)" opacity="0.25"></path>
        <path
            d="M388.0000305175781 12.02117919921875L724.0000519877614 206.01059915752444V593.9894390741357L388.0000305175781 787.9788590324415L52.00000904739494 593.9894390741357V206.01059915752444L388.0000305175781 12.02117919921875Z "
            filter="url(#nnneon-filter2)" opacity="0.25"></path>
        <path
            d="M400.0000305175781 12.02117919921875L736.0000519877614 206.01059915752444V593.9894390741357L400.0000305175781 787.9788590324415L64.00000904739494 593.9894390741357V206.01059915752444L400.0000305175781 12.02117919921875Z ">
        </path>
    </g>
</svg>