<svg xmlns="http://www.w3.org/2000/svg" version="1.1" xmlns:xlink="http://www.w3.org/1999/xlink"
   xmlns:svgjs="http://svgjs.dev/svgjs" viewBox="0 0 800 800">
   <defs>
      <linearGradient x1="50%" y1="0%" x2="50%" y2="100%" id="ccchaos-grad">
         <stop stop-color="hsl(55, 94%, 54%)" stop-opacity="1" offset="0%"></stop>
         <stop stop-color="hsl(212, 96%, 51%)" stop-opacity="1" offset="100%"></stop>
      </linearGradient>
   </defs>
   <g stroke-width="8.5" stroke="url(#ccchaos-grad)" fill="none" stroke-linecap="round">
      <path
         d="M395.02 29.35Q404.68 35.73 414.56 42.51 424.67 49.66 435 57.12 445.52 64.83 456.22 72.71 467.06 80.67 477.98 88.62 488.95 96.46 499.9 104.11 510.79 111.48 521.56 118.48 532.15 125.07 542.53 131.19 552.67 136.81 562.53 141.92 572.1 146.54 581.38 150.7 590.4 154.43 599.16 157.83 607.71 160.96 616.09 163.92 624.36 166.81 632.59 169.75 640.85 172.85 649.19 176.2 657.68 179.91 666.38 184.05 675.36 188.7 684.63 193.9 694.25 199.69 704.21 206.05 705.82 217.07 708.48 228.1 711.74 239.12 715.05 250.15 717.84 261.17 719.62 272.2 720.1 283.22 719.19 294.25 717.04 305.27 714.03 316.3 710.67 327.32 707.54 338.35 705.17 349.37 703.97 360.4 704.15 371.42 705.67 382.44 708.27 393.47 711.51 404.49 714.84 415.52 717.67 426.54 719.54 437.57 720.11 448.59 719.29 459.62 717.22 470.64 714.26 481.66 710.9 492.69 707.74 503.71 705.3 514.74 704.01 525.76 704.09 536.79 702.71 555.41 691.8 568.08 683.69 574.06 675.49 580.96 667.15 588.74 658.61 597.31 649.81 606.58 640.73 616.4 631.34 626.61 621.64 637.03 611.63 647.49 601.32 657.77 590.76 667.7 579.99 677.11 569.05 685.83 558 693.73 546.91 700.73 535.82 706.75 524.81 711.77 513.91 715.8 503.19 718.9 492.67 721.16 482.38 722.7 472.35 723.68 462.56 724.28 453.02 724.7 443.72 725.13 434.61 725.8 425.67 726.88 416.85 728.58 408.12 731.06 399.41 734.44 388.68 727.81 378.05 722.25 367.56 717.74 357.24 714.23 347.11 711.62 337.17 709.79 327.43 708.57 317.87 707.8 308.48 707.28 299.24 706.79 290.12 706.14 281.08 705.14 272.09 703.61 263.11 701.38 254.11 698.33 245.05 694.38 235.9 689.45 226.65 683.54 217.28 676.67 207.77 668.89 198.13 660.3 188.35 651.02 178.45 641.2 168.44 631.02 158.34 620.66 148.17 610.3 137.96 600.13 127.73 590.33 117.51 581.06 107.31 572.46 97.17 564.63 87.09 557.65 86.5 546.64 86.17 535.63 86.15 524.62 86.45 513.61 87.01 502.6 87.74 491.59 88.52 480.57 89.2 469.56 89.68 458.55 89.87 447.54 89.74 436.53 89.31 425.52 88.65 414.51 87.88 403.49 87.13 392.48 86.53 381.47 86.18 370.46 86.14 359.45 86.42 348.44 86.96 337.43 87.69 326.41 88.47 315.4 89.16 304.39 89.66 293.38 89.87 282.37 89.76 271.36 89.35 260.34 88.7 249.33 87.94 238.32 87.18 227.31 86.56 216.3 86.19 205.29 95.77 200.72 105.44 196.67 115.19 193.05 125.05 189.8 135.02 186.79 145.09 183.94 155.25 181.12 165.49 178.22 175.79 175.14 186.13 171.78 196.49 168.06 206.82 163.9 217.11 159.26 227.32 154.11 237.43 148.44 247.42 142.25 257.26 135.59 266.94 128.5 276.46 121.05 285.83 113.31 295.04 105.38 304.12 97.35 313.09 89.32 321.99 81.37 330.84 73.61 339.7 66.12 348.6 58.95 357.57 52.17 366.67 45.8 375.93 39.88 390.2 31.87 395.02 29.35"
         stroke-dasharray="0 1" transform="rotate(0, 400, 400)" opacity="0.74"></path>
      <path
         d="M395.42 42.91Q405.21 49.06 415.19 55.59 425.34 62.48 435.63 69.67 446.03 77.1 456.5 84.71 467 92.41 477.48 100.12 487.89 107.76 498.2 115.25 508.35 122.49 518.31 129.42 528.04 135.98 537.54 142.12 546.78 147.8 555.76 153 564.5 157.72 573 161.98 581.31 165.81 589.46 169.27 605.45 175.26 621.44 180.83 629.57 183.61 637.86 186.54 646.36 189.71 655.12 193.21 664.16 197.12 673.51 201.51 683.18 206.41 693.16 211.85 695.32 222.43 698.22 233.02 701.41 243.6 704.37 254.19 706.64 264.77 707.85 275.36 707.82 285.94 706.54 296.53 704.23 307.11 701.25 317.69 698.06 328.28 695.19 338.86 693.07 349.45 692.06 360.03 692.3 370.62 693.76 381.2 696.21 391.79 699.27 402.37 702.43 412.96 705.21 423.54 707.17 434.12 707.98 444.71 707.53 455.29 705.88 465.88 703.3 476.46 700.2 487.05 697.06 497.63 694.39 508.21 692.61 518.8 692 529.38 689.53 547.79 678.49 561.51 670.64 568.24 662.8 575.77 654.92 584.02 646.92 592.89 638.77 602.27 630.4 612.02 621.8 621.97 612.93 631.97 603.78 641.84 594.35 651.42 584.65 660.56 574.69 669.11 564.52 676.96 554.16 683.99 543.66 690.16 533.08 695.41 522.46 699.76 511.85 703.22 501.3 705.86 490.86 707.78 480.57 709.1 470.46 709.96 460.56 710.52 450.87 710.97 441.41 711.47 432.17 712.22 423.14 713.39 414.3 715.13 405.61 717.58 397.05 720.87 387 714.5 377.12 709.09 367.42 704.65 357.91 701.13 348.6 698.45 339.46 696.5 330.48 695.15 321.64 694.25 304.3 693.08 287.08 691.68 278.48 690.42 269.82 688.59 261.08 686.08 252.24 682.78 243.28 678.62 234.19 673.57 224.97 667.62 215.61 660.8 206.13 653.18 196.53 644.83 186.83 635.87 177.05 626.44 167.21 616.69 157.34 606.78 147.46 596.88 137.59 587.15 127.76 577.74 117.97 568.79 108.26 560.44 98.61 552.78 98.16 542.17 98 531.57 98.15 520.96 98.59 510.35 99.26 499.74 100.05 489.13 100.82 478.53 101.47 467.92 101.88 457.31 101.99 446.7 101.79 436.09 101.3 425.49 100.6 414.88 99.81 404.27 99.05 393.66 98.44 383.05 98.07 372.44 98.01 361.84 98.26 351.23 98.79 340.62 99.51 330.01 100.31 319.4 101.05 308.8 101.63 298.19 101.95 287.58 101.96 276.97 101.66 266.36 101.09 255.75 100.35 245.15 99.55 234.54 103.11 216.74 116.58 206.18 125.84 203.14 135.2 200.32 144.65 197.64 154.22 194.99 163.88 192.26 173.65 189.37 183.5 186.22 193.42 182.74 203.39 178.86 213.39 174.53 223.38 169.71 233.35 164.41 243.27 158.61 253.1 152.35 262.82 145.67 272.42 138.61 281.87 131.24 291.17 123.65 300.31 115.92 309.29 108.12 318.13 100.36 326.83 92.71 335.43 85.26 343.95 78.08 352.42 71.22 360.89 64.74 369.38 58.65 377.94 52.99 391.01 45.33 395.42 42.91"
         stroke-dasharray="1 0" transform="rotate(4.04, 400, 400)" opacity="0.58"></path>
      <path
         d="M396.99 56.46Q406.77 62.38 416.67 68.67 426.65 75.28 436.67 82.19 446.7 89.34 456.7 96.67 466.64 104.11 476.46 111.58 486.14 119 495.65 126.3 504.96 133.4 514.05 140.24 522.91 146.76 531.55 152.89 539.96 158.61 548.17 163.89 556.2 168.71 564.09 173.09 579.55 180.42 594.97 186.75 610.78 192.05 627.11 197.24 635.66 199.99 644.48 202.96 653.58 206.23 662.96 209.88 672.61 213.97 682.52 218.53 685.05 228.69 688.01 238.85 690.96 249.01 693.49 259.17 695.21 269.33 695.87 279.49 695.38 289.64 693.81 299.8 691.39 309.96 688.48 320.12 685.49 330.28 682.87 340.44 681 350.6 680.15 360.76 680.45 370.92 681.86 381.08 684.16 391.24 687.02 401.4 690.03 411.56 692.74 421.72 694.76 431.88 695.78 442.04 695.67 452.2 694.43 462.36 692.25 472.51 689.45 482.67 686.44 492.83 683.65 502.99 681.5 513.15 680.3 523.31 680.23 533.47 681.29 543.63 673.27 549.49 665.44 556.11 657.75 563.43 650.15 571.4 642.58 579.93 634.99 588.91 627.34 598.22 619.56 607.72 611.62 617.26 603.49 626.7 595.13 635.9 586.53 644.71 577.68 653.02 568.58 660.7 559.24 667.68 549.68 673.88 539.92 679.26 530.01 683.8 519.97 687.53 509.85 690.48 499.7 692.72 489.56 694.35 479.46 695.48 469.46 696.25 459.58 696.79 449.85 697.27 440.3 697.85 430.95 698.68 421.78 699.91 412.82 701.69 404.05 704.12 395.45 707.32 386.22 701.19 377.18 695.95 368.32 691.58 359.62 688.06 342.71 683.56 326.1 680.78 309.68 679.48 293.19 678.17 276.33 675.36 259.14 670.86 250.31 667.39 241.36 663.14 232.27 658.06 223.07 652.17 213.76 645.5 204.37 638.1 194.91 630.05 185.41 621.47 175.88 612.46 166.36 603.16 156.85 593.7 147.39 584.24 137.98 574.92 128.63 565.87 119.37 557.23 110.19 549.09 109.9 538.88 109.92 528.66 110.25 518.45 110.83 508.23 111.58 498.02 112.39 487.8 113.14 477.58 113.73 467.37 114.06 457.15 114.09 446.94 113.81 436.72 113.27 426.51 112.54 416.29 111.73 406.08 110.96 395.86 110.34 385.64 109.97 375.43 109.88 365.21 110.11 355 110.62 344.78 111.32 334.57 112.12 324.35 112.91 314.13 113.56 303.92 113.98 293.7 114.11 283.49 113.94 273.27 113.47 263.06 112.79 252.84 112 242.62 115.19 225.75 127.89 216.27 136.67 213.65 145.52 211.14 154.46 208.65 163.5 206.08 172.64 203.36 181.89 200.39 191.24 197.11 200.69 193.46 210.21 189.39 219.79 184.87 229.42 179.89 239.06 174.45 248.7 168.55 258.31 162.25 267.85 155.57 277.31 148.57 286.67 141.32 295.9 133.9 304.99 126.38 313.92 118.85 322.71 111.37 331.34 104.03 339.82 96.9 348.18 90.04 356.42 83.49 364.58 77.3 372.68 71.5 380.76 66.1 392.92 58.78 396.99 56.46"
         stroke-dasharray="1 0" transform="rotate(8.08, 400, 400)" opacity="0.31"></path>
      <path
         d="M399.34 70.03Q408.89 75.71 418.47 81.74 428.03 88.09 437.54 94.72 446.98 101.58 456.32 108.62 465.51 115.78 474.54 122.99 483.39 130.18 492.05 137.28 500.5 144.23 508.76 150.95 516.82 157.4 524.7 163.51 532.42 169.25 540.01 174.59 554.92 183.79 569.77 191.75 584.94 197.95 600.53 203.39 608.66 205.82 617.01 208.22 625.61 210.66 634.46 213.22 643.56 215.97 652.89 219 662.45 222.36 672.19 226.12 674.89 235.87 677.73 245.62 680.34 255.36 682.37 265.11 683.54 274.86 683.69 284.61 682.81 294.36 681.01 304.1 678.54 313.85 675.72 323.6 672.94 333.35 670.58 343.1 668.94 352.84 668.25 362.59 668.6 372.34 669.95 382.09 672.11 391.84 674.79 401.58 677.64 411.33 680.26 421.08 682.31 430.83 683.51 440.58 683.7 450.32 682.85 460.07 681.08 469.82 678.63 479.57 675.82 489.31 673.03 499.06 670.65 508.81 668.98 518.56 668.26 528.3 668.57 538.05 660.56 544.59 652.77 551.75 645.17 559.48 637.7 567.7 630.34 576.31 623.03 585.2 615.74 594.26 608.4 603.35 600.99 612.35 593.46 621.13 585.78 629.58 577.92 637.58 569.85 645.03 561.57 651.86 553.07 657.99 544.34 663.39 535.4 668.03 526.27 671.93 516.96 675.1 507.51 677.59 497.95 679.49 488.3 680.87 478.62 681.85 468.94 682.54 459.29 683.08 449.7 683.61 440.22 684.25 430.86 685.16 421.65 686.45 412.6 688.25 395.18 689.27 378.41 682.8 362.37 675.38 346.59 670.1 330.94 667.52 315.2 665.89 299.08 664.54 282.62 662.54 274.17 660.87 265.59 658.64 256.89 655.79 248.07 652.25 239.15 647.98 230.14 642.97 221.05 637.22 211.92 630.76 202.75 623.66 193.58 615.97 184.42 607.8 175.28 599.23 166.2 590.39 157.17 581.4 148.22 572.38 139.35 563.45 130.56 554.75 121.85 546.38 121.76 536.55 121.97 526.72 122.45 516.89 123.14 507.06 123.94 497.23 124.76 487.4 125.46 477.57 125.97 467.74 126.22 457.91 126.16 448.08 125.82 438.25 125.23 428.41 124.47 418.58 123.65 408.75 122.87 398.92 122.25 389.09 121.86 379.26 121.76 369.43 121.96 359.6 122.43 349.77 123.11 339.94 123.92 330.11 124.73 320.28 125.44 310.45 125.96 300.62 126.22 290.79 126.17 280.96 125.83 271.13 125.25 261.29 124.5 251.46 127.4 235.42 139.38 226.8 156.08 222.08 172.99 217.11 181.6 214.3 190.32 211.19 199.13 207.74 208.05 203.89 217.07 199.62 226.17 194.92 235.35 189.79 244.58 184.22 253.85 178.26 263.14 171.94 272.42 165.3 281.66 158.4 290.85 151.3 299.95 144.08 308.96 136.8 317.84 129.54 326.59 122.37 335.2 115.35 343.65 108.54 351.96 102 360.12 95.77 368.15 89.88 376.07 84.36 383.88 79.21 395.49 72.23 399.34 70.03"
         stroke-dasharray="1 1" transform="rotate(12.12, 400, 400)" opacity="0.35"></path>
      <path
         d="M401.86 83.58Q410.94 89.03 419.96 94.81 428.89 100.88 437.72 107.22 446.41 113.8 454.94 120.54 463.32 127.42 471.51 134.36 479.54 141.3 487.38 148.19 495.06 154.96 502.58 161.54 509.97 167.89 517.25 173.96 524.45 179.7 531.59 185.08 545.9 194.48 560.37 202.7 575.44 209.12 591.05 214.67 599.21 217.08 607.58 219.37 616.19 221.61 625 223.88 634.02 226.24 643.22 228.77 658.66 237.74 667.32 253.29 669.49 262.64 670.99 271.99 671.62 281.33 671.31 290.68 670.11 300.03 668.15 309.38 665.67 318.73 662.99 328.08 660.44 337.42 658.32 346.77 656.9 356.12 656.36 365.47 656.75 374.82 658.04 384.16 660.06 393.51 662.57 402.86 665.25 412.21 667.78 421.56 669.84 430.9 671.18 440.25 671.63 449.6 671.15 458.95 669.78 468.3 667.7 477.64 665.16 486.99 662.48 496.34 659.99 505.69 657.99 515.03 656.73 524.38 656.36 533.73 648.36 540.76 640.59 548.28 633.02 556.21 625.62 564.47 618.38 572.96 611.24 581.58 604.18 590.22 597.16 598.77 590.13 607.12 583.07 615.17 575.92 622.81 568.67 629.97 561.28 636.57 553.73 642.56 545.99 647.89 538.07 652.54 529.95 656.51 521.63 659.81 513.13 662.49 504.45 664.59 495.61 666.18 486.64 667.36 477.56 668.22 468.4 668.86 459.19 669.41 449.97 669.99 440.76 670.7 431.59 671.68 422.49 673.02 413.5 674.83 396.42 675.89 380.69 669.67 365.77 662.35 350.88 656.99 335.8 654.19 320.47 652.37 304.58 651.05 288.33 649.34 279.99 647.98 271.53 646.18 262.98 643.85 254.33 640.95 245.62 637.41 236.85 633.21 228.05 628.33 219.23 622.8 210.42 616.63 201.63 609.87 192.89 602.59 184.2 594.85 175.57 586.75 167.02 578.38 158.55 569.86 150.16 561.28 141.86 552.75 133.64 544.39 133.75 534.94 134.14 525.49 134.76 516.04 135.53 506.59 136.36 497.14 137.14 487.69 137.78 478.24 138.2 468.79 138.35 459.34 138.21 449.89 137.8 440.44 137.16 430.99 136.38 421.54 135.55 412.09 134.78 402.64 134.16 393.19 133.76 383.74 133.64 374.29 133.8 364.84 134.24 355.39 134.9 345.94 135.69 336.49 136.51 327.04 137.28 317.59 137.88 308.14 138.26 298.69 138.35 289.24 138.15 279.79 137.69 270.34 137.02 260.89 139.72 245.6 151.05 237.59 166.82 233.01 182.73 227.95 190.82 224.98 198.99 221.69 207.26 218.02 215.63 213.97 224.1 209.51 232.67 204.64 241.33 199.37 250.07 193.73 258.89 187.73 267.76 181.43 276.67 174.86 285.59 168.09 294.51 161.18 303.4 154.18 312.23 147.17 321 140.2 329.67 133.34 338.23 126.64 346.66 120.17 354.96 113.95 363.12 108.04 371.13 102.45 379 97.21 386.74 92.32 398.11 85.68 401.86 83.58"
         stroke-dasharray="1 1" transform="rotate(16.16, 400, 400)" opacity="0.27"></path>
      <path
         d="M403.9 97.14Q412.31 102.36 420.61 107.88 428.78 113.68 436.81 119.73 444.69 126.01 452.41 132.46 459.98 139.04 467.4 145.7 474.68 152.38 481.83 159.04 488.87 165.6 495.82 172.03 502.71 178.26 509.56 184.26 523.31 195.19 537.21 205.11 551.65 213.21 566.55 220.24 582.38 225.75 598.78 230.58 607.31 232.73 616.01 234.83 624.85 236.93 633.82 239.1 648.68 247.12 656.69 261.8 658.37 270.76 659.33 279.71 659.47 288.67 658.76 297.63 657.3 306.58 655.24 315.54 652.82 324.49 650.3 333.45 647.97 342.4 646.1 351.36 644.89 360.31 644.48 369.27 644.91 378.22 646.14 387.18 648.02 396.14 650.36 405.09 652.87 414.05 655.29 423 657.34 431.96 658.79 440.91 659.47 449.87 659.32 458.82 658.34 467.78 656.65 476.74 654.43 485.69 651.95 494.65 649.46 503.6 647.27 512.56 645.6 521.51 644.65 530.47 636.69 537.79 628.94 545.45 621.39 553.37 614.03 561.48 606.84 569.67 599.8 577.86 592.88 585.95 586.06 593.85 579.29 601.46 572.55 608.72 565.8 615.53 559.01 621.85 545.15 632.49 530.92 641.33 515.94 647.19 500.44 651.46 484.12 653.69 467.36 655.2 450.08 656.47 432.63 658.21 423.86 659.59 415.12 661.41 398.56 662.5 383.65 656.54 369.47 649.34 355.12 643.92 340.33 640.92 325.21 638.9 309.49 637.56 293.43 636.04 276.9 633.26 260.17 629.24 251.73 626.35 243.28 622.89 234.83 618.83 226.4 614.16 218.01 608.9 209.66 603.07 201.38 596.7 193.17 589.85 185.03 582.58 176.98 574.97 169.01 567.1 161.12 559.04 153.3 550.91 145.56 542.79 145.88 533.72 146.43 524.65 147.15 515.58 147.97 506.51 148.79 497.44 149.52 488.37 150.08 479.31 150.4 470.24 150.45 461.17 150.23 452.1 149.75 443.03 149.07 433.96 148.27 424.89 147.44 415.82 146.67 406.76 146.05 397.69 145.65 388.62 145.51 379.55 145.64 370.48 146.04 361.41 146.66 352.34 147.43 343.28 148.26 334.21 149.06 325.14 149.73 316.07 150.22 307 150.45 297.93 150.4 288.86 150.09 279.8 149.53 270.73 152.12 256.11 162.87 248.49 177.76 243.83 192.74 238.5 208 231.64 223.49 223.68 231.4 219.04 239.41 214.03 247.51 208.67 255.71 202.97 264 196.98 272.37 190.74 280.81 184.29 289.31 177.68 297.84 170.98 306.4 164.23 314.95 157.5 323.49 150.84 331.98 144.31 340.41 137.95 348.77 131.81 357.02 125.92 365.16 120.33 373.18 115.04 381.07 110.08 388.81 105.44 400.16 99.14 403.9 97.14"
         stroke-dasharray="0 1" transform="rotate(20.200000000000003, 400, 400)" opacity="0.54"></path>
      <path
         d="M404.93 110.71Q420.08 120.94 434.7 132.23 448.79 144.35 462.43 157 475.73 169.82 488.87 182.41 502.03 194.39 515.41 205.43 529.19 215.28 543.52 223.79 558.51 230.95 574.18 236.85 590.49 241.73 607.34 245.92 624.54 249.82 641.88 253.88 645.79 271.02 647.39 288.15 646.05 305.29 642.31 322.42 637.64 339.56 633.91 356.69 632.6 373.83 634.23 390.96 638.15 408.1 642.81 425.24 646.34 442.37 647.36 459.51 645.44 476.64 641.36 493.78 636.74 510.92 633.41 528.05 617.83 543.03 602.99 558.51 588.86 573.86 575.3 588.46 562.16 601.72 549.22 613.19 536.26 622.59 523.08 629.79 509.51 634.91 495.41 638.25 480.72 640.27 465.44 641.57 449.63 642.84 433.39 644.77 416.88 648.01 400.27 653.08 386.77 643.41 373.01 636.08 358.86 630.92 344.27 627.57 329.23 625.51 313.76 624.11 297.94 622.7 281.89 620.59 265.72 617.2 249.57 612.06 233.56 604.87 217.78 595.53 202.3 584.14 187.13 570.98 172.27 556.51 157.67 541.28 158.84 523.91 160.47 506.54 161.9 489.17 162.57 471.8 162.22 454.43 160.97 437.07 159.34 419.7 157.96 402.33 157.39 384.96 157.85 367.59 159.16 350.22 160.8 332.85 162.11 315.49 162.58 298.12 162.02 280.75 160.65 263.38 174.81 259.3 188.9 254.5 203.01 248.65 217.25 241.51 231.72 232.98 246.51 223.08 261.65 211.95 277.18 199.86 293.06 187.16 309.21 174.22 325.54 161.46 341.91 149.25 358.16 137.9 374.16 127.63 389.78 118.57 404.93 110.71 404.93 110.71 404.93 110.71"
         stroke-dasharray="1 0" transform="rotate(24.24, 400, 400)" opacity="0.93"></path>
      <path
         d="M404.69 124.26Q418.32 134 431.52 144.72 444.38 156.23 457 168.27 469.53 180.53 482.15 192.67 495 204.36 508.23 215.27 521.97 225.17 536.28 233.87 551.19 241.33 566.65 247.55 582.58 252.7 598.83 257 615.23 260.78 631.58 264.39 634.56 280.75 635.18 297.11 633.21 313.47 629.37 329.84 625.03 346.2 621.76 362.56 620.73 378.92 622.32 395.29 625.96 411.65 630.32 428.01 633.85 444.38 635.27 460.74 634.07 477.1 630.68 493.47 626.33 509.83 622.57 526.19 607.24 540.76 592.55 555.35 578.51 569.44 565.07 582.5 552.14 594.13 539.57 604 527.19 611.94 514.83 617.95 502.31 622.19 489.47 624.97 476.2 626.72 462.44 627.98 448.15 629.34 433.37 631.37 418.18 634.62 402.68 639.52 389.46 630.3 375.85 623.16 361.8 617.98 347.32 614.47 332.46 612.21 317.3 610.69 301.95 609.34 286.51 607.57 271.11 604.86 255.86 600.75 240.83 594.93 226.08 587.22 211.64 577.61 197.5 566.25 183.63 553.42 169.96 539.53 171.36 522.95 172.99 506.36 174.26 489.77 174.7 473.18 174.17 456.59 172.85 440.01 171.22 423.42 169.87 406.83 169.27 390.24 169.65 373.65 170.88 357.07 172.5 340.48 173.93 323.89 174.67 307.31 174.44 290.72 173.32 274.13 186.83 269.84 200.2 264.64 213.51 258.32 226.86 250.73 240.33 241.85 254.03 231.77 268.02 220.68 282.36 208.82 297.07 196.54 312.12 184.17 327.46 172.07 342.99 160.55 358.62 149.87 374.19 140.22 397.14 127.97 404.69 124.26"
         stroke-dasharray="0 0" transform="rotate(28.28, 400, 400)" opacity="0.62"></path>
      <path
         d="M403.24 137.82Q415.58 147.06 427.67 157.2 439.63 168.09 451.59 179.51 463.68 191.2 476.03 202.85 488.74 214.18 501.92 224.89 515.6 234.77 529.79 243.61 544.46 251.33 559.52 257.89 574.85 263.37 590.32 267.92 605.75 271.77 620.99 275.2 622.98 290.79 622.71 306.37 620.26 321.96 616.43 337.55 612.46 353.13 609.64 368.72 608.87 384.31 610.42 399.89 613.77 415.48 617.84 431.06 621.32 446.65 623.07 462.24 622.53 477.82 619.86 493.41 615.95 509 612.05 524.58 597.11 538.36 582.67 551.79 568.79 564.43 555.47 575.9 542.67 585.91 530.33 594.25 518.32 600.87 506.5 605.83 494.74 609.31 482.87 611.63 470.78 613.18 458.36 614.43 445.52 615.87 432.25 617.99 418.53 621.24 404.41 625.96 391.26 617.19 377.7 610.26 363.77 605.09 349.5 601.45 334.99 599.01 320.34 597.34 305.65 595.98 291.02 594.44 276.55 592.26 262.3 589.01 248.33 584.38 234.65 578.15 221.26 570.22 208.13 560.64 195.21 549.55 182.42 537.25 183.97 521.46 185.52 505.66 186.58 489.87 186.79 474.08 186.1 458.29 184.72 442.5 183.1 426.71 181.77 410.92 181.16 395.13 181.46 379.34 182.58 363.55 184.16 347.76 185.68 331.97 186.65 316.18 186.75 300.4 185.96 284.61 198.87 279.93 211.58 274.25 224.18 267.43 236.72 259.44 249.3 250.3 261.99 240.14 274.9 229.17 288.07 217.64 301.57 205.84 315.41 194.09 329.58 182.68 344.06 171.86 358.76 161.86 373.6 152.82 395.85 141.32 403.24 137.82"
         stroke-dasharray="1 1" transform="rotate(32.32, 400, 400)" opacity="0.72"></path>
      <path
         d="M400.95 151.39Q412.34 160.12 423.68 169.69 435.1 179.95 446.69 190.74 458.55 201.82 470.78 212.94 483.41 223.86 496.49 234.31 510 244.09 523.91 253 538.14 260.92 552.59 267.8 567.13 273.64 581.64 278.53 595.98 282.61 610.02 286.1 611.03 300.9 610.01 315.7 607.23 330.5 603.52 345.3 599.95 360.1 597.55 374.9 597.02 389.7 598.51 404.5 601.59 419.3 605.37 434.1 608.75 448.9 610.75 463.7 610.79 478.5 608.86 493.31 605.52 508.11 601.73 522.91 587.34 535.59 573.3 547.63 559.68 558.73 546.54 568.59 533.89 577.04 521.7 583.98 509.91 589.41 498.43 593.45 487.17 596.31 475.99 598.26 464.78 599.67 453.43 600.93 441.83 602.45 429.92 604.64 417.65 607.86 404.99 612.4 391.9 604.08 378.49 597.39 364.82 592.25 350.97 588.51 337.04 585.9 323.12 584.07 309.29 582.66 295.63 581.26 282.2 579.46 269.04 576.9 256.16 573.27 243.56 568.33 231.19 561.94 219.02 554.06 206.99 544.75 195.03 534.15 196.63 519.17 198.03 504.2 198.84 489.23 198.83 474.25 197.99 459.28 196.56 444.31 194.98 429.34 193.68 414.36 193.05 399.39 193.27 384.42 194.28 369.45 195.79 354.47 197.35 339.5 198.51 324.53 198.94 309.56 198.52 294.59 210.85 289.41 222.98 283.22 234.93 275.95 246.77 267.62 258.55 258.32 270.36 248.2 282.27 237.46 294.35 226.34 306.67 215.09 319.29 204 332.22 193.29 345.48 183.19 359.04 173.87 372.85 165.44 393.9 154.67 400.95 151.39"
         stroke-dasharray="1 0" transform="rotate(36.36, 400, 400)" opacity="0.30"></path>
      <path
         d="M398.42 164.94Q409.2 173.17 420.12 182.15 431.24 191.79 442.65 201.93 454.4 212.38 466.51 222.94 479 233.39 491.85 243.52 505.02 253.11 518.43 262.01 532 270.07 545.64 277.22 559.22 283.41 572.65 288.68 585.82 293.11 598.63 296.83 598.74 310.83 597.11 324.83 594.16 338.83 590.65 352.83 587.49 366.83 585.49 380.84 585.17 394.84 586.6 408.84 589.43 422.84 592.91 436.85 596.16 450.85 598.34 464.85 598.88 478.85 597.65 492.86 594.96 506.86 591.51 520.86 577.81 532.2 564.31 542.74 551.11 552.25 538.26 560.55 525.82 567.54 513.8 573.21 502.18 577.61 490.92 580.88 479.97 583.21 469.23 584.88 458.62 586.19 448.04 587.48 437.4 589.08 426.61 591.33 415.59 594.5 404.29 598.84 391.42 590.98 378.36 584.55 365.21 579.49 352.03 575.67 338.91 572.91 325.92 570.92 313.12 569.42 300.55 568.07 288.24 566.53 276.19 564.5 264.39 561.68 252.82 557.84 241.42 552.81 230.15 546.5 218.96 538.89 207.77 530.03 209.3 515.9 210.5 501.76 211.05 487.62 210.81 473.49 209.84 459.35 208.39 445.22 206.84 431.08 205.59 416.95 204.95 402.81 205.09 388.68 205.98 374.54 207.39 360.41 208.95 346.27 210.26 332.14 210.99 318 210.94 303.87 222.72 298.15 234.3 291.47 245.68 283.82 256.89 275.27 267.99 265.93 279.03 255.96 290.07 245.55 301.18 234.92 312.43 224.29 323.89 213.89 335.59 203.91 347.58 194.53 359.88 185.88 372.47 178.05 391.88 168.01 398.42 164.94"
         stroke-dasharray="0 0" transform="rotate(40.400000000000006, 400, 400)" opacity="0.50"></path>
      <path
         d="M396.29 178.5Q406.75 186.22 417.44 194.63 428.41 203.63 439.68 213.11 451.27 222.91 463.18 232.87 475.36 242.81 487.79 252.53 500.39 261.87 513.09 270.66 525.81 278.78 538.47 286.11 550.97 292.62 563.23 298.26 575.19 303.09 586.79 307.17 586.11 320.36 584.05 333.54 581.06 346.73 577.83 359.92 575.09 373.1 573.47 386.29 573.33 399.47 574.7 412.66 577.27 425.84 580.46 439.03 583.55 452.21 585.83 465.4 586.78 478.58 586.2 491.77 584.2 504.95 581.25 518.14 568.38 528 555.58 536.98 542.95 544.92 530.55 551.75 518.44 557.43 506.67 561.98 495.25 565.5 484.18 568.12 473.43 570.04 462.97 571.5 452.74 572.76 442.67 574.09 432.68 575.76 422.71 578.03 412.66 581.14 402.49 585.28 390.1 577.88 377.69 571.72 365.31 566.77 353.05 562.92 340.94 560.02 329.04 557.89 317.37 556.27 305.95 554.9 294.76 553.52 283.8 551.86 273.04 549.67 262.43 546.72 251.93 542.85 241.49 537.93 231.05 531.89 220.58 524.73 221.96 511.45 222.9 498.18 223.18 484.9 222.73 471.62 221.66 458.35 220.21 445.07 218.7 431.8 217.49 418.52 216.85 405.25 216.91 391.97 217.68 378.7 218.97 365.42 220.49 352.14 221.89 338.87 222.86 325.59 223.18 312.31 234.43 306.09 245.47 298.99 256.32 291.07 266.98 282.43 277.48 273.18 287.86 263.47 298.17 253.5 308.45 243.44 318.78 233.48 329.2 223.8 339.77 214.56 350.56 205.9 361.58 197.92 372.87 190.68 390.37 181.36 396.29 178.5"
         stroke-dasharray="1 1" transform="rotate(44.44, 400, 400)" opacity="0.51"></path>
      <path
         d="M395.12 192.06Q405.39 199.27 415.92 207.1 426.71 215.46 437.76 224.28 449.05 233.42 460.56 242.75 472.23 252.12 484 261.38 495.83 270.37 507.63 278.97 519.34 287.03 530.9 294.47 542.23 301.2 553.31 307.18 564.07 312.41 574.5 316.91 573.21 329.26 570.88 341.61 567.97 353.96 565.08 366.31 562.76 378.66 561.48 391.01 561.49 403.36 562.79 415.71 565.12 428.06 568.03 440.41 570.92 452.76 573.24 465.11 574.52 477.46 574.5 489.81 573.19 502.16 570.86 514.51 558.92 522.83 546.95 530.26 535.04 536.74 523.24 542.23 511.62 546.74 500.24 550.33 489.12 553.12 478.29 555.23 467.76 556.84 457.52 558.15 447.54 559.38 437.78 560.75 428.21 562.48 418.77 564.77 409.4 567.8 400.04 571.72 388.44 564.79 376.95 558.92 365.6 554.1 354.43 550.25 343.47 547.26 332.74 544.98 322.22 543.23 311.93 541.81 301.82 540.5 291.88 539.08 282.07 537.34 272.34 535.09 262.65 532.16 252.96 528.42 243.23 523.77 233.41 518.16 234.57 505.77 235.22 493.37 235.23 480.97 234.59 468.58 233.44 456.18 232 443.78 230.56 431.38 229.4 418.99 228.75 406.59 228.75 394.19 229.38 381.8 230.53 369.4 231.97 357 233.42 344.6 234.58 332.21 235.22 319.81 245.91 313.15 256.43 305.76 266.76 297.72 276.91 289.12 286.89 280.1 296.71 270.78 306.39 261.33 315.99 251.9 325.54 242.65 335.1 233.72 344.7 225.23 354.41 217.29 364.27 209.97 374.32 203.33 389.86 194.71 395.12 192.06"
         stroke-dasharray="1 0" transform="rotate(48.48, 400, 400)" opacity="0.54"></path>
      <path
         d="M395.2 205.62Q405.27 212.32 415.54 219.56 426.02 227.29 436.66 235.44 447.44 243.9 458.32 252.57 469.25 261.34 480.17 270.07 491.04 278.64 501.79 286.94 512.39 294.85 522.79 302.28 532.95 309.13 542.85 315.37 552.46 320.95 561.8 325.86 560.07 337.36 557.64 348.85 554.93 360.35 552.4 371.85 550.48 383.34 549.52 394.84 549.66 406.34 550.88 417.83 552.99 429.33 555.61 440.82 558.29 452.32 560.58 463.81 562.09 475.31 562.55 486.81 561.89 498.3 560.22 509.8 549.29 516.59 538.27 522.57 527.21 527.71 516.17 532.01 505.2 535.53 494.36 538.33 483.7 540.52 473.23 542.24 463 543.62 453.01 544.84 443.26 546.07 433.75 547.48 424.46 549.25 415.36 551.53 406.41 554.47 397.58 558.17 387.04 551.71 376.66 546.16 366.48 541.49 356.5 537.68 346.73 534.62 337.15 532.22 327.75 530.34 318.51 528.83 309.4 527.51 300.38 526.22 291.41 524.78 282.47 523.04 273.51 520.84 264.5 518.06 255.4 514.58 246.2 510.34 247.08 498.83 247.42 487.33 247.18 475.83 246.39 464.33 245.19 452.83 243.78 441.32 242.41 429.82 241.3 418.32 240.66 406.82 240.59 395.31 241.1 383.81 242.1 372.31 243.43 360.81 244.85 349.3 246.12 337.8 247.03 326.3 257.14 319.35 267.11 311.83 276.93 303.81 286.58 295.42 296.07 286.75 305.38 277.93 314.55 269.09 323.58 260.36 332.5 251.85 341.35 243.68 350.17 235.95 358.99 228.72 367.87 222.05 376.84 215.97 390.57 208.06 395.2 205.62"
         stroke-dasharray="1 0" transform="rotate(52.52, 400, 400)" opacity="0.57"></path>
      <path
         d="M396.52 219.18Q406.22 225.37 416.06 232.03 425.99 239.12 436 246.59 446.04 254.37 456.08 262.36 466.07 270.48 475.98 278.63 485.77 286.71 495.39 294.61 504.84 302.26 514.07 309.55 523.08 316.41 531.86 322.79 543.59 336.57 544.39 355.14 541.95 365.76 539.8 376.39 538.27 387.01 537.58 397.64 537.83 408.26 538.98 418.88 540.86 429.51 543.2 440.13 545.66 450.76 547.87 461.38 549.52 472.01 550.36 482.63 550.27 493.25 549.26 503.88 539.39 509.25 529.38 513.91 519.27 517.87 509.12 521.17 498.96 523.87 488.83 526.04 478.78 527.78 468.84 529.2 459.05 530.42 449.43 531.59 440 532.83 430.76 534.28 421.73 536.07 412.89 538.32 404.23 541.14 395.74 544.6 386.4 538.62 377.24 533.4 368.26 528.94 359.46 525.19 350.82 522.11 342.31 519.62 325.66 516.12 309.18 513.37 292.68 510.57 276.01 506.98 263.48 497.58 259.5 480.13 259.04 469.53 258.13 458.94 256.9 448.34 255.55 437.75 254.25 427.15 253.21 416.56 252.58 405.96 252.44 395.37 252.82 384.77 253.67 374.17 254.85 363.58 256.2 352.98 257.52 342.39 258.61 331.79 268.1 324.72 277.49 317.24 286.76 309.43 295.9 301.38 304.9 293.19 313.74 284.97 322.43 276.81 330.97 268.82 339.38 261.09 347.67 253.69 355.87 246.7 364 240.18 372.09 234.15 380.19 228.64 392.42 221.42 396.52 219.18"
         stroke-dasharray="0 0" transform="rotate(56.56, 400, 400)" opacity="0.33"></path>
      <path
         d="M398.73 232.73Q407.84 238.41 417 244.49 426.16 250.95 435.31 257.74 444.42 264.82 453.45 272.11 462.38 279.56 471.17 287.07 479.82 294.59 488.31 302.02 496.61 309.29 504.73 316.32 512.67 323.06 520.42 329.43 530.69 343.01 531.17 360.37 529.05 370.11 527.3 379.85 526.13 389.59 525.68 399.33 526.01 409.07 527.07 418.81 528.74 428.55 530.82 438.29 533.03 448.03 535.12 457.77 536.83 467.51 537.94 477.24 533.71 493.9 520.16 504.34 511.08 507.32 501.9 509.8 492.66 511.85 483.39 513.53 474.11 514.93 464.88 516.15 455.7 517.27 446.61 518.42 437.64 519.68 428.8 521.16 420.11 522.95 411.58 525.15 395.04 526.69 378.89 520.68 363.37 513.09 348.13 507.19 333.13 503.49 318.13 500.62 302.89 498.16 287.4 495.34 275.57 487.54 271.45 471.9 270.8 462.22 269.81 452.54 268.59 442.85 267.3 433.17 266.09 423.49 265.12 413.81 264.5 404.12 264.31 394.44 264.57 384.76 265.25 375.07 266.27 365.39 267.5 355.71 268.79 346.03 269.98 336.34 278.8 329.35 287.56 322.09 296.24 314.64 304.83 307.09 313.3 299.5 321.65 291.95 329.87 284.54 337.96 277.33 345.91 270.38 353.73 263.76 361.43 257.51 369.02 251.67 376.53 246.27 383.96 241.31 395.04 234.77 398.73 232.73"
         stroke-dasharray="1 0" transform="rotate(60.599999999999994, 400, 400)" opacity="0.10"></path>
      <path
         d="M401.27 246.3Q417.81 256.96 434.14 268.91 450.11 281.86 465.59 295.45 480.5 309.21 494.83 322.66 508.6 335.35 521.93 346.88 518.02 364.56 514.9 382.24 513.8 399.93 515.16 417.61 518.45 435.29 522.35 452.97 525.31 470.66 526.16 488.34 510.51 493.95 494.34 497.99 477.78 500.88 461.03 503.13 444.26 505.33 427.66 508.1 411.39 511.99 395.55 517.49 381.59 507.97 367.92 500.5 354.38 494.92 340.8 490.91 327.05 488.02 313 485.69 298.59 483.33 283.77 480.35 283.25 462.82 281.43 445.29 279.04 427.76 277.02 410.23 276.19 392.69 276.86 375.16 278.78 357.63 281.17 340.1 297.34 326.53 313.34 312.65 329.06 298.96 344.39 285.91 359.26 273.9 373.67 263.21 394.46 250.15 401.27 246.3"
         stroke-dasharray="0 1" transform="rotate(64.64, 400, 400)" opacity="0.07"></path>
      <path
         d="M403.48 259.86Q417.97 269.43 432.14 280.08 445.89 291.62 459.19 303.77 472.03 316.23 484.46 328.63 496.53 340.62 508.37 351.87 504.99 367.74 502.59 383.62 501.95 399.49 503.26 415.36 506.11 431.23 509.57 447.11 512.52 462.98 514 478.85 500.39 482.87 486.29 485.85 471.79 488.15 456.99 490.17 442 492.35 426.96 495.12 412 498.87 397.24 503.92 385.08 495.28 372.96 488.28 360.77 482.82 348.4 478.71 335.76 475.65 322.81 473.27 309.5 471.14 295.86 468.84 294.9 453.14 293 437.44 290.77 421.74 288.93 406.04 288.08 390.34 288.5 374.64 290.05 358.94 292.22 343.24 306.87 330.69 321.48 318.17 335.95 306.03 350.17 294.6 364.07 284.13 377.6 274.81 397.11 263.29 403.48 259.86"
         stroke-dasharray="1 0" transform="rotate(68.68, 400, 400)" opacity="0.58"></path>
      <path
         d="M404.79 273.41Q417.11 281.9 429.1 291.27 440.74 301.39 452.04 312.09 463.04 323.14 473.78 334.31 484.35 345.34 494.84 355.97 492.12 370.03 490.39 384.08 490.12 398.14 491.35 412.19 493.78 426.25 496.79 440.31 499.58 454.36 501.46 468.42 489.77 471.27 477.69 473.51 465.24 475.43 452.47 477.32 439.44 479.48 426.24 482.21 412.94 485.77 399.64 490.37 388.89 482.62 378.03 476.15 366.97 470.91 355.68 466.77 344.11 463.57 332.24 461.07 320.1 458.98 307.69 457.02 306.42 443.14 304.52 429.26 302.49 415.37 300.84 401.49 300 387.61 300.19 373.73 301.36 359.85 303.2 345.97 316.24 334.74 329.32 323.75 342.38 313.25 355.33 303.43 368.1 294.46 380.63 286.45 398.83 276.43 404.79 273.41"
         stroke-dasharray="1 0" transform="rotate(72.72, 400, 400)" opacity="0.67"></path>
      <path
         d="M404.87 286.98Q415.09 294.37 425.06 302.47 434.8 311.19 444.33 320.41 453.71 330 462.98 339.8 472.2 349.63 481.44 359.33 479.42 371.57 478.3 383.82 478.31 396.06 479.45 408.3 481.49 420.55 484.02 432.79 482.62 452.18 468.49 461.1 458.02 462.8 447.27 464.62 436.27 466.75 425.05 469.39 413.65 472.7 402.14 476.81 392.52 469.97 382.72 464.1 372.7 459.17 362.45 455.12 351.96 451.85 341.25 449.21 330.34 447.05 319.25 445.17 317.81 433.1 316 421.02 314.2 408.94 312.74 396.86 311.93 384.78 311.93 372.7 312.72 360.62 314.17 348.54 325.52 338.84 336.97 329.5 348.47 320.65 359.96 312.42 371.4 304.91 382.73 298.15 399.38 289.58 404.87 286.98"
         stroke-dasharray="1 0" transform="rotate(76.76, 400, 400)" opacity="0.79"></path>
      <path
         d="M403.69 300.54Q412.03 306.86 420.23 313.71 428.32 321.04 436.32 328.79 444.28 336.87 452.23 345.2 460.22 353.66 468.27 362.15 466.91 372.59 466.3 383.03 466.52 393.47 467.54 403.91 469.21 414.35 471.29 424.79 470.33 441.23 458.75 448.75 450.12 450.32 441.29 452.08 432.26 454.16 423.04 456.64 413.64 459.65 404.08 463.24 395.47 457.34 386.68 452.13 377.72 447.62 368.57 443.76 359.26 440.51 349.81 437.8 334.66 429.42 327.46 413.01 325.9 402.71 324.65 392.41 323.89 382.11 323.72 371.81 324.18 361.52 325.2 351.22 334.83 343.18 344.57 335.52 354.39 328.31 364.27 321.61 374.18 315.47 384.07 309.91 398.8 302.74 403.69 300.54"
         stroke-dasharray="0 1" transform="rotate(80.80000000000001, 400, 400)" opacity="0.90"></path>
      <path
         d="M401.56 314.09Q414.98 324.96 428.31 337.24 441.72 350.62 455.39 364.67 454.4 381.98 455.63 399.28 458.6 416.59 462.12 433.9 448.55 436.57 434.54 439.76 420.02 443.99 404.97 449.69 389.72 440.25 374.02 432.71 357.95 426.91 341.66 422.58 338.89 405.49 336.56 388.41 335.59 371.32 336.37 354.24 352.25 341.9 368.49 331.01 384.98 321.73 401.56 314.09 401.56 314.09 401.56 314.09"
         stroke-dasharray="0 1" transform="rotate(84.84, 400, 400)" opacity="0.58"></path>
      <path
         d="M399.02 327.65Q409.76 336.27 420.58 345.82 431.59 356.19 442.85 367.16 442.59 380.93 443.72 394.7 445.96 408.47 448.72 422.25 438.03 424.69 427.15 427.66 416.01 431.4 404.58 436.13 391.82 428.44 378.85 421.95 365.75 416.62 352.59 412.33 350.31 398.71 348.46 385.1 347.53 371.49 347.74 357.88 360.17 348.76 372.89 340.65 392.44 330.64 399.02 327.65"
         stroke-dasharray="1 0" transform="rotate(88.88, 400, 400)" opacity="0.54"></path>
      <path
         d="M396.74 341.22Q405 347.6 413.39 354.55 421.94 362 430.66 369.89 430.86 380.16 431.82 390.43 430.37 406.95 419.33 415.8 411.23 418.9 403.01 422.57 393.14 416.7 383.23 411.5 373.31 406.96 363.41 403.04 361.73 392.86 360.37 382.68 359.54 372.5 359.36 362.33 368.45 356.13 377.71 350.55 391.94 343.4 396.74 341.22"
         stroke-dasharray="0 1" transform="rotate(92.92, 400, 400)" opacity="0.07"></path>
      <path
         d="M395.3 354.77Q406.9 363.45 418.83 373.1 419.91 386.75 422.05 400.38 411.36 404.22 400.66 409.01 387.38 401.35 374.22 394.85 372.28 381.3 371.29 367.75 389.21 357.74 395.3 354.77"
         stroke-dasharray="0 1" transform="rotate(96.96, 400, 400)" opacity="0.70"></path>
   </g>
</svg>