<?xml version="1.0" encoding="UTF-8" standalone="no"?>
<!-- Created with Inkscape (http://www.inkscape.org/) -->

<svg
   xmlns:dc="http://purl.org/dc/elements/1.1/"
   xmlns:cc="http://creativecommons.org/ns#"
   xmlns:rdf="http://www.w3.org/1999/02/22-rdf-syntax-ns#"
   xmlns:svg="http://www.w3.org/2000/svg"
   xmlns="http://www.w3.org/2000/svg"
   xmlns:sodipodi="http://sodipodi.sourceforge.net/DTD/sodipodi-0.dtd"
   xmlns:inkscape="http://www.inkscape.org/namespaces/inkscape"
   width="32"
   height="32"
   viewBox="0 0 8.4666659 8.4666659"
   version="1.1"
   id="svg8"
   inkscape:version="0.92.4 (5da689c313, 2019-01-14)"
   sodipodi:docname="bt.svtg.svg">
  <defs
     id="defs2" />
  <sodipodi:namedview
     id="base"
     pagecolor="#ffffff"
     bordercolor="#666666"
     borderopacity="1.0"
     inkscape:pageopacity="0.0"
     inkscape:pageshadow="2"
     inkscape:zoom="11.2"
     inkscape:cx="-12.294614"
     inkscape:cy="12.903842"
     inkscape:document-units="mm"
     inkscape:current-layer="layer1"
     showgrid="false"
     inkscape:snap-global="true"
     inkscape:snap-bbox="true"
     inkscape:snap-bbox-midpoints="true"
     inkscape:snap-object-midpoints="true"
     inkscape:snap-text-baseline="true"
     inkscape:window-width="1920"
     inkscape:window-height="1009"
     inkscape:window-x="1912"
     inkscape:window-y="-8"
     inkscape:window-maximized="1"
     fit-margin-top="2"
     fit-margin-left="2"
     fit-margin-right="2"
     fit-margin-bottom="1"
     units="px" />
  <metadata
     id="metadata5">
    <rdf:RDF>
      <cc:Work
         rdf:about="">
        <dc:format>image/svg+xml</dc:format>
        <dc:type
           rdf:resource="http://purl.org/dc/dcmitype/StillImage" />
        <dc:title></dc:title>
      </cc:Work>
    </rdf:RDF>
  </metadata>
  <g
     inkscape:label="Layer 1"
     inkscape:groupmode="layer"
     id="layer1"
     transform="translate(-103.07265,-118.22024)">
    <path
       style="fill:#5065a8;fill-opacity:1;stroke:none;stroke-width:0.10524813;stroke-miterlimit:4;stroke-dasharray:none;stroke-opacity:1"
       d="m 107.67624,118.56787 a 3.9345108,3.8170588 0 0 0 -3.93456,3.817 3.9345108,3.8170588 0 0 0 3.93456,3.8171 3.9345108,3.8170588 0 0 0 2.78036,-1.11963 l -2.7734,-2.69062 c -0.003,-0.003 -0.003,-0.0106 0,-0.0134 l 2.7734,-2.69073 a 3.9345108,3.8170588 0 0 0 -2.78036,-1.11964 z m 0.67156,1.04825 a 0.3837406,0.37228527 0 0 1 0.38364,0.37218 0.3837406,0.37228527 0 0 1 -0.38364,0.37232 0.3837406,0.37228527 0 0 1 -0.38379,-0.37232 0.3837406,0.37228527 0 0 1 0.38379,-0.37218 z"
       id="circle4528-3"
       inkscape:connector-curvature="0" />
  </g>
</svg>
